<svg id="logo-azul" xmlns="http://www.w3.org/2000/svg" xmlns:xlink="http://www.w3.org/1999/xlink" width="538.548" height="251" viewBox="0 0 538.548 251">
  <defs>
    <clipPath id="clip-path">
      <rect id="Retângulo_10" data-name="Retângulo 10" width="580" height="500" fill="none"/>
    </clipPath>
  </defs>
  <g id="Grupo_7" data-name="Grupo 7" clip-path="url(#clip-path)">
    <path id="Caminho_30" data-name="Caminho 30" d="M530.933,438.138a9.872,9.872,0,0,1-5.724-2.838c-3.87-4.577-2.832-12.9,3.952-14.832a8.849,8.849,0,0,1,11.18,10.669c-1.066,4.316-2.389,6.534-6.88,7-.267.028-.407,0-1.378,0Zm5.033-9.205a6.386,6.386,0,0,0-.534-2.912c-.711-2.481-4.453-3.352-6.316-1.577-2.171,2.07-2.057,7.313.212,9.312a3.454,3.454,0,0,0,3.506.756c1.974-.59,2.881-1.788,3.132-5.58" transform="translate(-233.052 -187.209)" fill="#091123"/>
    <path id="Caminho_31" data-name="Caminho 31" d="M710.3,437.158a8.5,8.5,0,0,1-4.733-9.286c.6-4.194,2.161-6.308,6.315-7.424,5.9-1.584,10.9,2.348,10.9,8.4,0,5.8-1.722,8.661-7.42,9.256a9.873,9.873,0,0,1-5.061-.943m-.181-8.164c0,.383-.027.767,0,1.148.2,2.526,1.96,4.524,3.972,4.536,2.547.015,3.7-1.364,4.157-4.35a16.259,16.259,0,0,0-.108-3.473c-.09-1.707-1.965-3.221-3.728-3.312-2.611-.135-4.255,1.966-4.3,5.452" transform="translate(-314.371 -187.208)" fill="#091123"/>
    <path id="Caminho_32" data-name="Caminho 32" d="M410.889,438.214a15.277,15.277,0,0,1-3.356-.734c-1.452-.421-2.383-.995-2.033-2.7a9.156,9.156,0,0,0,.015-1.664c1.418.476,2.679.866,3.915,1.324a6.61,6.61,0,0,0,3.851.026,1.427,1.427,0,0,0,1.273-1.407,1.605,1.605,0,0,0-1.158-1.675c-1.4-.337-2.78-.729-4.161-1.123a5.258,5.258,0,0,1-4.075-4.953c.068-2.087,2.363-4.34,4.7-4.762a10.783,10.783,0,0,1,4.806-.011c3.816.991,3.175.441,3,4.137a32,32,0,0,0-5.681-1.072c-1.32-.029-2.455.455-2.549,1.68-.09,1.179,1.117,1.592,2.231,1.8a21.137,21.137,0,0,1,4.846,1.27,3.222,3.222,0,0,1,2.123,2.849c.245,3.817-.433,5.511-5.12,7.019a13.664,13.664,0,0,1-2.636-.007" transform="translate(-180.551 -187.283)" fill="#091123"/>
    <path id="Caminho_33" data-name="Caminho 33" d="M205.469,438.349a9.536,9.536,0,0,1-2.116-.315c-1.226-.315-2.453-.626-3.669-.971-1.817-.514-1-2.209-.946-3.107.088-1.333,1.324-.31,1.888-.092,1.9.733,3.7,1.324,5.8.667,1.007-.315,1.41-.7,1.349-1.669a1.569,1.569,0,0,0-1.43-1.508A23.093,23.093,0,0,1,201.556,430c-1.711-.8-3.583-2.133-3.3-5.3.152-1.707,1.75-2.989,3.412-3.649,2.84-1.128,5.773-.524,8.578.1,1.3.289.54,1.9.513,2.862-.029.976-1.124.537-1.526.381a10.687,10.687,0,0,0-4.778-.664,1.745,1.745,0,0,0-1.577,1.3c-.229.974.446,1.382,1.187,1.791a13.811,13.811,0,0,0,3.923,1.021c4.234.925,4.152,2.9,4.016,6.063-.088,2.035-2.018,3.509-4.866,4.269a5.746,5.746,0,0,1-1.669.177" transform="translate(-88.337 -187.352)" fill="#091123"/>
    <path id="Caminho_34" data-name="Caminho 34" d="M250.2,438.477a11.948,11.948,0,0,1-1.947-.313c-2.928-1-3.629-.983-3.3-4.671,1.911.523,3.631,1.728,5.725,1.539a12.232,12.232,0,0,0,1.824-.333,1.808,1.808,0,0,0,1.587-1.7c.008-.894-.967-1.228-1.674-1.4a23.993,23.993,0,0,1-4.622-1.251c-2.328-1.09-3.8-3.464-3.343-5.317a5.2,5.2,0,0,1,5.507-4.168c2,.089,3.5-.065,5.533,1.117,1.5.873,1.132,1.243,1.138,2.182.007,1.024-1.112.558-1.638.375a11.207,11.207,0,0,0-4.045-.655c-1.135.03-2.088.393-2.221,1.594-.135,1.218,1.019,1.533,1.864,1.832,1.1.389,2.285.518,3.422.8,3.291.817,4.075,3.226,3.892,5.775-.156,2.164-1.909,3.372-4.649,4.208a8.83,8.83,0,0,1-3.055.385" transform="translate(-108.9 -187.547)" fill="#091123"/>
    <path id="Caminho_35" data-name="Caminho 35" d="M599.853,438.249a12.018,12.018,0,0,1-3.368-.572c-1.658-.541-2.316-1.287-2.016-2.958a8.137,8.137,0,0,0,.009-1.29c2.058.467,3.8,1.75,5.938,1.553a14.552,14.552,0,0,0,2-.44c.9-.21.894-.953.888-1.675-.007-.889-.626-1.192-1.34-1.366a20.242,20.242,0,0,1-5.138-1.517c-1.624-.892-3.011-3.24-2.739-4.658a5.326,5.326,0,0,1,4.6-4.536,21.688,21.688,0,0,1,6.83.368c1.807.479.654,1.918.77,2.868.132,1.085-1.014.641-1.42.508a12.067,12.067,0,0,0-4.615-.707,1.86,1.86,0,0,0-1.853,1.355c-.282,1.028.486,1.527,1.316,1.787,1.29.4,2.607.724,3.918,1.059,3.325.85,4.063,1.943,3.876,5.772-.11,2.249-1.848,3.812-4.616,4.22a18.544,18.544,0,0,1-3.043.229" transform="translate(-264.731 -187.474)" fill="#091123"/>
    <path id="Caminho_36" data-name="Caminho 36" d="M497.75,437.537c-3.591-1.574-5.259-4.3-5.612-8.149a7.908,7.908,0,0,1,1.742-5.393,6.676,6.676,0,0,1,4.421-3.022c2.6-.476,5.248-.864,7.739.471,1.663.892.223,2.429.966,3.7-5.523-1.984-7.718-1.787-9.331.7-1.255,1.932-1.092,5.629.32,7.259,1.953,2.256,4.635,2.361,8.57.334.645,3.377.122,4.463-3.289,4.812a9.768,9.768,0,0,1-5.526-.712" transform="translate(-219.299 -187.401)" fill="#091123"/>
    <path id="Caminho_37" data-name="Caminho 37" d="M671.384,199.941a16.667,16.667,0,0,1,1.7-4.37c2.733-6.514,5.258-13.1,6.375-20.153a58.385,58.385,0,0,0,1.1-10.517c-.287-11.975-5.262-21.43-15.192-28.253-7.46-5.126-15.863-7.891-24.531-10.032a174.979,174.979,0,0,0-21.424-3.764c-5.219-.618-10.484-.97-15.747-1.284-12.738-.761-25.477-1.12-38.234-.939-4.6.065-9.229-.075-13.807.322-4.339.377-8.668.052-12.988.332-6.671.432-13.355.482-20.028.8-5.33.254-10.666.456-15.987.778-5.653.342-11.316.378-16.956.773-3.056.215-6.195-.2-9.127.461-2.405.541-4.918-.537-7.237.907-.887.553-2.155-.355-3.323-.332-10.188.2-20.363.9-30.557.839a3.936,3.936,0,0,1-2.094-.231c2.683-.472,5.172-.942,7.674-1.329a4.341,4.341,0,0,0,2.266-.841c.143-.12.376-.335.462-.293,2.22,1.106,4.231-1.375,6.433-.367.11.05.251.18.322.148,3.372-1.523,7.043-.608,10.54-1.312,4.866-.98,9.8-1.717,14.738-2.224,3.381-.348,6.693-1.158,10.1-1.306a2.874,2.874,0,0,0,1.774-.465c1-1.008,2.084-.938,3.358-.89,4.508.169,8.848-1.122,13.251-1.812,6.03-.944,12.034-2.1,18.007-3.359,10.084-2.133,20.145-4.359,30.117-7,8.93-2.367,17.782-4.958,26.511-7.965,18.191-6.267,35.68-14.021,51.581-24.992,12.453-8.592,23.319-18.806,31.41-31.739a86.873,86.873,0,0,0,9.912-22.689,68.6,68.6,0,0,0,2.663-15.826c.014-.343-.192-.814.312-.976s.834.222,1.16.514c2.048,1.834,4.117,3.647,6.129,5.522,14.063,13.1,26.529,27.489,35.92,44.374a115.087,115.087,0,0,1,11.626,30.423A79.952,79.952,0,0,1,731.3,93.932a81.234,81.234,0,0,1,.329,8.182,94.087,94.087,0,0,1-3.3,22.241,111.126,111.126,0,0,1-4.935,14.149,126.539,126.539,0,0,1-17.135,27.849,192.791,192.791,0,0,1-29.911,29.638c-1.577,1.278-3.176,2.527-4.965,3.948" transform="translate(-193.105 0)" fill="#f38d0a"/>
    <path id="Caminho_38" data-name="Caminho 38" d="M53.825,307.069c-.278-2.273,9.414-46.7,9.566-48.8.077-1.065.514-1.52,1.672-1.51,5.689.054,11.379.024,17.106.024-1,4.811-13.742,67.995-14.6,73.384-.414,2.611-2.506,1.875-3.574,1.816-5.728-.323-11.45,0-17.171-.1a1.576,1.576,0,0,1-1.74-1.287c-3.043-9.263-14.771-44.326-15.393-46.053-.191-.531-.111-1.28-.813-1.26-.647.018-1.041.585-1.182,1.288-.59,2.933-9.131,43.473-9.189,46.23-.018.852-.459,1.063-1.224,1.06-5.371-.016-10.742-.047-16.112.018-1.437.018-1.211-.9-1.072-1.636.649-3.413,13.285-66.823,14.008-69.677.961-3.794,1-3.783,5.036-3.783,5.306,0,10.613.03,15.92-.024a1.723,1.723,0,0,1,2.014,1.425c2.877,8.932,13.569,40.834,15.814,47.927.1.312-.011.809.93.962" transform="translate(0 -114.418)" fill="#091123"/>
    <path id="Caminho_39" data-name="Caminho 39" d="M620.586,275.306c-2.4-1.021-4.4-2.483-6.719-3.349a67.532,67.532,0,0,0-10.744-3c-3.656-.716-12.731-.483-17.795,1.511a23.1,23.1,0,0,0-9.735,6.747,32.833,32.833,0,0,0-6.817,13.158,40.7,40.7,0,0,0-1.365,12.418c.537,8.365,6.038,14.179,14.759,15.02a35.922,35.922,0,0,0,12.669-.722c1.427-.372,1.949-.777,2.193-2.359.648-4.21,1.694-8.359,2.614-12.685-3.672,0-7.182.014-10.692-.019-.42,0-1.12.375-1.227-.445-.062-.475,1.993-8.7,2.247-9.917.554-2.657.948-3.106,3.373-2.887,5.983.541,11.97.108,17.954.236,3.063.065,6.129.011,9.37.011-2.038,9.993-4.066,19.85-6.046,29.716-.33,1.648-.147,3.36-.82,5a3.335,3.335,0,0,1-1.925,2.082,82.711,82.711,0,0,1-20.6,5.682,72.235,72.235,0,0,1-18.045.172,52.563,52.563,0,0,1-10.41-2.556c-2.092-.681-3.879-2.405-5.692-3.8A26.937,26.937,0,0,1,548.8,314.3a22.436,22.436,0,0,1-1.756-8.117,54.939,54.939,0,0,1,1.105-13.884,52.1,52.1,0,0,1,9.079-20.09,44.66,44.66,0,0,1,13.742-11.552,51.191,51.191,0,0,1,19.673-6.046,54.066,54.066,0,0,1,13.728.159c2.851.395,5.838.456,8.507,1.372,3.132,1.075,6.518,1.446,9.424,3.28.933.588,1.255,1.134,1.077,2.041-.9,4.578-1.841,9.148-2.792,13.84" transform="translate(-243.763 -113.302)" fill="#091123"/>
    <path id="Caminho_40" data-name="Caminho 40" d="M193.716,256.78c3.069,0,6.138.028,9.206-.012,1.391-.018,2.352-.2,2.545,1.928.206,2.268,12.1,70.226,12.116,70.286.689,2.821.652,2.868-2.186,2.868-5.115,0-10.229-.034-15.343.023-1.369.016-1.778-.412-1.947-1.827-.443-3.707-1.206-7.376-1.5-11.108-.093-1.192-.987-.774-1.582-.777-5.306-.029-23.591.006-27.426-.034a1.812,1.812,0,0,0-1.924,1.114c-1.949,3.74-4.054,7.4-6.023,11.128a2.417,2.417,0,0,1-2.505,1.518c-5.368-.088-10.74-.048-16.11-.029-1.223,0-2,.165-1-1.557,6.583-11.285,39.7-69.265,41.491-72.592a1.677,1.677,0,0,1,1.824-.931q5.178.008,10.357,0m-3.751,18.331a8.608,8.608,0,0,0-.891,1.161c-3.509,6.922-7.5,13.585-11.079,20.465-1.247,2.395-3.167,4.545-3.4,7.447,6.125,0,12.2.012,18.275-.021.508,0,1.584.423,1.378-.678-.529-2.824-.823-5.674-1.2-8.516-.553-4.14-1.255-8.26-1.808-12.4a61.888,61.888,0,0,0-1.276-7.457" transform="translate(-62.203 -114.419)" fill="#091123"/>
    <path id="Caminho_41" data-name="Caminho 41" d="M679.234,331.852c1.736-3.128,39.96-70.595,42.523-74.306a1.436,1.436,0,0,1,1.444-.759c6.908-.007,13.815.015,20.723-.025.992-.006,1.244.328,1.4,1.274.554,3.372,11.239,68.714,12.417,72.812.3,1.059-.375,1.007-1.048,1.006-3.871,0-15.322-.032-17.175.012-.93.022-1.517-.37-1.536-1.26-.058-2.772-1.81-10.4-1.566-11.664.232-1.207-.9-.774-1.473-.777-6.332-.029-24.753-.014-27.631-.022-.642,0-1.206-.023-1.594.7-2.151,4.013-4.382,7.983-6.5,12.011a1.551,1.551,0,0,1-1.591,1.009c-6.006-.023-12.012-.013-18.389-.013m34.707-27.667c6.593,0,12.854-.017,19.115.018.977.006,1.216-.355,1.086-1.246-.542-3.716-3.073-21.3-3.831-26.364-.05-.339.179-.825-.332-.969-.468-.132-.65.268-.853.593-.236.376-13.291,24.376-15.185,27.969" transform="translate(-302.689 -114.421)" fill="#091123"/>
    <path id="Caminho_42" data-name="Caminho 42" d="M473.029,316.361a78.03,78.03,0,0,0-1.957,8.714,30.854,30.854,0,0,0-.89,5.135c-.069,1.618-.885,1.646-2.1,1.644q-21-.04-42.007-.014c-2.81,0-5.62.038-8.43.072-.84.011-1.1-.094-.923-1.157.646-3.909,13.948-69.156,14.314-72.436a1.651,1.651,0,0,1,1.89-1.591q24.647.091,49.3.025c1.175,0,1.5.2,1.2,1.511-.828,3.57-1.5,7.181-2.1,10.8-.285,1.71-.8,2.472-2.812,2.442-9.589-.142-19.181-.031-28.771-.1-1.541-.011-2.047.526-2.271,1.992-.528,3.442-1.207,6.864-1.914,10.275-.289,1.4.163,1.682,1.51,1.673,9.079-.058,18.158.013,27.237-.071,1.538-.014,1.852.42,1.55,1.8-.851,3.913-1.676,7.833-2.435,11.765-.223,1.155-.862,1.238-1.837,1.235-9.143-.032-18.286.007-27.429-.046-1.409-.008-1.863.166-2.161,1.833-.533,2.979-1.272,5.95-1.94,8.921-.458,2.038-.816,4.1-1.243,6.274h20.01q5.563,0,11.126,0c1.044,0,2.115.16,3.1-.7" transform="translate(-185.68 -114.406)" fill="#091123"/>
    <path id="Caminho_43" data-name="Caminho 43" d="M312.439,311.268c2.594-4.525,29.038-51.546,30.074-53.492a1.723,1.723,0,0,1,1.8-1.026c5.944.033,11.888.018,18.027.018-.65,1.926-37.067,64.976-40.722,71.975-1.439,2.756-3.192,3.254-5.968,3.157-5.81-.2-11.633-.118-17.449-.023-1.453.023-1.8-.651-1.986-1.816-.814-4.985-11.447-69.045-12.216-71.622-.314-1.052-.186-1.734,1.312-1.709,5.624.094,11.25.057,16.876.018.951-.006,1.259.228,1.389,1.241.535,4.169,8.146,51.455,8.423,53.224l.445.054" transform="translate(-126.495 -114.407)" fill="#091123"/>
    <path id="Caminho_44" data-name="Caminho 44" d="M342.124,429.762a38.649,38.649,0,0,0,3.249-7.518c.35-1.128.941-1.355,2.011-1.354,4.359.006,4.359-.027,4.359,4.386,0,3.642-.035,7.283.022,10.924.017,1.08-.126,1.585-1.417,1.563-2.805-.047-2.807.038-2.806-2.805,0-2.862,0-5.723-.285-8.68-.921,2.166-1.835,4.337-2.767,6.5-.439,1.017-.751,1.963-2.308,1.939-1.515-.023-1.7-.933-2.1-1.925a38.832,38.832,0,0,0-2.98-6.017c0,2.865.032,5.73-.021,8.594-.014.768.48,1.949-.376,2.232a8.883,8.883,0,0,1-3.417.074c-.611-.051-.388-.709-.389-1.11-.014-4.728.014-9.455-.029-14.182-.009-.927.272-1.3,1.186-1.16a2.388,2.388,0,0,0,.383,0c4.157-.055,4.163-.058,5.768,3.782.626,1.5,1.219,3.012,1.922,4.755" transform="translate(-148.331 -187.562)" fill="#091123"/>
    <path id="Caminho_45" data-name="Caminho 45" d="M571,431.649c0-2.974.057-5.949-.028-8.921-.034-1.216.254-1.639,1.55-1.6,2.671.077,2.673,0,2.673,2.745,0,4.151-.038,8.3.026,12.452.017,1.1-.364,1.246-1.383,1.39-2.789.394-4.373-.631-5.431-3.267a38.879,38.879,0,0,0-4.236-7.358v2.6c0,1.788.047,3.577-.021,5.363-.032.853.488,2.138-.31,2.469a5.408,5.408,0,0,1-3.374.042,1.974,1.974,0,0,1-.971-2.219c.92-4.209.417-8.434.279-12.655-.037-1.115.167-1.752,1.557-1.885,2.477-.236,4.085.307,5.1,2.893a76.685,76.685,0,0,0,4.2,8.008l.363-.052" transform="translate(-249.309 -187.5)" fill="#091123"/>
    <path id="Caminho_46" data-name="Caminho 46" d="M753.338,429.746c2.5,2.027,3.337,4.909,4.694,7.809-1.255,0-2.321-.082-3.368.024a1.523,1.523,0,0,1-1.727-1.054,20.944,20.944,0,0,0-2.255-4.175,2.512,2.512,0,0,0-2.718-.912c-1.087.246-.362,1.278-.532,1.938a4.724,4.724,0,0,0-.017,1.146c0,3.186-.522,3.579-3.722,3.058-.751-.122-.742-.5-.741-1.028q.006-7.381-.006-14.761c0-.686.146-1.028.943-1.067,2.267-.111,4.536-.063,6.81-.207a5.09,5.09,0,0,1,5.306,5.473c-.044,1.852-1.241,2.786-2.667,3.756m-6.239-4.155c.187,1.41-.452,2.817,1.531,2.774,2.217-.048,2.643-.444,2.786-2.449.138-1.933-1.135-1.683-2.324-1.809-1.471-.155-2.382.13-1.993,1.485" transform="translate(-331.081 -187.391)" fill="#091123"/>
    <path id="Caminho_47" data-name="Caminho 47" d="M640.04,427.136c-.145,1.89.212,4.083-.5,6.277-.731,2.247-1.886,3.794-4.255,4.449-4.362,1.208-8.192,0-9.25-3.086a28.964,28.964,0,0,1-.553-3.421c-.221-3.179-.081-6.383-.11-9.577-.009-.995-.313-.98,1.327-1.006,1.8.027,2.591-.1,2.9.341.721,1.013.227,2.459.256,3.718.057,2.49.007,4.983.056,7.474a2.6,2.6,0,0,0,2.564,2.658c1.51-.133,2.6-.5,2.882-2.517a83.074,83.074,0,0,0,.258-10.068c.025-1.5.726-1.69,1.915-1.587,1.975.172,3,.991,2.541,3.177a16.872,16.872,0,0,0-.032,3.169" transform="translate(-278.673 -187.507)" fill="#091123"/>
    <path id="Caminho_48" data-name="Caminho 48" d="M379.815,420.754c2.6-.054,2.968.7,3.581,2.486,1.436,4.178,3.01,8.31,4.6,12.434.534,1.39.7,2.117-1.289,2.055-1.681-.052-3.009-.1-3.2-2.149-.073-.787-.66-.823-1.267-.819-1.087.007-2.179.064-3.26-.013a3.3,3.3,0,0,0-3.635,2.67c-.163.824-3.356.748-3.979.159-.322-.3-.12-.686.011-1.036,1.693-4.519,3.478-9.008,5.029-13.575.642-1.892.793-2.135,3.41-2.21m-2.108,10.793c1.194,0,2.276-.025,3.357.008.78.024,1.043-.192.732-1-.655-1.693-1.248-3.408-1.931-5.293a40.955,40.955,0,0,0-2.159,6.28" transform="translate(-165.415 -187.5)" fill="#091123"/>
    <path id="Caminho_49" data-name="Caminho 49" d="M787.072,437.971c1.712-4.592,3.295-8.911,4.933-13.208,1.265-3.317,1.3-3.254,4.907-3.321a1.9,1.9,0,0,1,2.24,1.573c1.515,4.475,3.23,8.884,4.936,13.292.493,1.275.4,1.711-1.147,1.717-1.793.007-3.276-.085-3.482-2.293-.075-.8-.665-.641-1.136-.652-1.085-.027-2.183.089-3.256-.032-1.719-.193-3.044.077-3.258,2.112-.084.8-.61.83-1.227.819-1.083-.02-2.167-.006-3.511-.006m6.533-6.142c1.375,0,2.456-.018,3.537.007.553.013.961-.187.726-.745-.695-1.649-.764-3.57-2.123-5.125l-2.141,5.863" transform="translate(-350.745 -187.807)" fill="#091123"/>
    <path id="Caminho_50" data-name="Caminho 50" d="M304.239,429.419c0-2.365.043-4.732-.019-7.1-.028-1.064.282-1.457,1.4-1.435,3.132.064,6.266-.017,9.4.023,1.295-.023,1.123,1.607,1.054,2.587-.044.631.089.755-.9.782-1.725.047-3.457.092-5.177-.013-1.184-.073-1.409.421-1.3,1.435.085.83-.312,1.833,1.23,1.7,1.523-.128,3.072.054,4.6-.051,1.457-.1,1.126.879,1.085,1.627s.533,1.926-1.1,1.816a31.032,31.032,0,0,0-3.834,0c-.646.037-1.654-.439-1.877.351a7.836,7.836,0,0,0,0,3.038c.074.574.731.353,1.14.359,1.662.022,3.326.044,4.987-.006.8-.024,1.249.192,1.082,1.056-.159.824.547,2.2-.957,2.256-3.321.118-6.648.042-9.973.034-1,0-.837-.759-.838-1.376-.008-2.365,0-4.73,0-7.1" transform="translate(-135.569 -187.561)" fill="#091123"/>
    <path id="Caminho_51" data-name="Caminho 51" d="M451.361,429.427c0-2.362.036-4.724-.017-7.085-.023-1,.141-1.5,1.332-1.466,3,.085,6,.11,9,0,1.688-.064,1.176,1.028,1.267,1.882.108,1.019,0,1.7-1.355,1.562-1.327-.135-2.691.089-4.015-.06-1.6-.18-2.133.343-1.967,1.952.091.881.251,1.226,1.188,1.181,1.528-.073,3.07.069,4.594-.044,1.584-.118,1.132.96,1.159,1.751.029.847.3,1.843-1.221,1.7-1.266-.119-2.566.1-3.825-.055-1.615-.2-1.837.516-1.85,1.92-.014,1.456.307,2.078,1.885,1.92,1.454-.146,2.946.087,4.4-.063,1.517-.157,1.419.692,1.434,1.716.015,1.07-.017,1.755-1.466,1.7-3.059-.126-6.128-.086-9.191-.013-1.111.026-1.4-.348-1.369-1.406.07-2.359.022-4.723.022-7.084" transform="translate(-201.13 -187.553)" fill="#091123"/>
    <path id="Caminho_52" data-name="Caminho 52" d="M682.975,420.9c2.234,0,4.47.063,6.7-.021,1.612-.06,1.061,1.065,1.109,1.827s.331,1.8-1.1,1.577a1.057,1.057,0,0,0-.192,0c-1.329.04-3.153-.434-3.866.249-.945.9-.288,2.753-.318,4.193-.053,2.487-.064,4.979.007,7.466.032,1.095-.153,1.571-1.428,1.559-3.075-.03-3.076.047-3.076-3.114,0-3-.047-6,.025-9,.025-1.077-.274-1.487-1.37-1.371-.82.086-1.671-.077-2.485.037-1.549.217-2.137-.257-2-1.915.091-1.1.238-1.579,1.481-1.517,2.164.109,4.339.03,6.509.03" transform="translate(-300.786 -187.552)" fill="#091123"/>
    <path id="Caminho_53" data-name="Caminho 53" d="M277.831,430.843c0-1.659-.1-3.325.031-4.973.11-1.409-.437-1.794-1.722-1.629a11.141,11.141,0,0,1-1.909.032c-2.528.064-2.1-.6-2.1-2.205,0-1.568.561-1.218,1.826-1.218,3.4,0,5.951-.124,8.917.016.955.045,1.914.006,2.87.007,2.063,0,2.056.291,2.115,2.766-.032.427.089.692-.29.711-.255.012-.776,0-1.031.014a34.451,34.451,0,0,0-4.062.157c-.439.354-.26,2.782-.287,4.228-.046,2.487-.07,4.977.013,7.462.038,1.131-.2,1.528-1.442,1.487a14.75,14.75,0,0,1-1.526,0c-1.372.043-1.47-.4-1.42-1.5.082-1.782.022-3.571.022-5.357" transform="translate(-121.256 -187.521)" fill="#091123"/>
    <path id="Caminho_54" data-name="Caminho 54" d="M659.275,429.307c0-2.169.114-4.345-.037-6.5-.117-1.669.529-2.156,2.047-1.929a4.069,4.069,0,0,0,1.146,0c1.15-.16,1.377.4,1.358,1.434-.057,3.124-.021,6.25-.021,9.375a8.316,8.316,0,0,0,.011,1.147c.151,1.076.376,1.943,1.888,1.742,1.441-.192,2.933.031,4.394-.06,1.513-.095,1.034.973,1,1.658-.034.645.657,1.747-.913,1.719-3.252-.059-6.507-.043-9.759,0-1,.012-1.136-.483-1.125-1.307.032-2.423.011-4.847.011-7.271" transform="translate(-293.772 -187.532)" fill="#091123"/>
    <path id="Caminho_55" data-name="Caminho 55" d="M779.436,429.513c0,2.425-.066,4.852.046,7.272.028.61-.124.826-.57.847a28.87,28.87,0,0,1-3.449,0c-.9-.067-.561-.869-.564-1.365-.026-4.217-.009-8.435-.021-12.653a10.9,10.9,0,0,1-.086-2.068c.083-.417,1.48-.73,1.659-.7.924.141,2.253-.476,2.693.315.466.84.2,2.1.207,3.18.019,1.725,0,3.45,0,5.176h.08" transform="translate(-345.254 -187.497)" fill="#091123"/>
    <path id="Caminho_56" data-name="Caminho 56" d="M230.132,429.265c0-2.3.061-4.6-.025-6.894-.045-1.2.371-1.629,1.531-1.486a5.807,5.807,0,0,0,1.529,0c1.232-.18,1.485.378,1.47,1.514-.059,4.6-.077,9.194.009,13.788.024,1.3-.392,1.7-1.6,1.533a5.931,5.931,0,0,0-1.53,0c-1.079.137-1.441-.263-1.4-1.369.079-2.359.024-4.723.024-7.085" transform="translate(-102.542 -187.545)" fill="#091123"/>
  </g>
</svg>
