<?xml version="1.0" standalone="no"?>
<!DOCTYPE svg PUBLIC "-//W3C//DTD SVG 20010904//EN"
 "http://www.w3.org/TR/2001/REC-SVG-20010904/DTD/svg10.dtd">
<svg version="1.0" xmlns="http://www.w3.org/2000/svg"
 width="400px" height="500px" viewBox="0 0 1200.000000 1200.000000"
 preserveAspectRatio="xMidYMid meet">

<g transform="translate(0.000000,1200.000000) scale(0.100000,-0.100000)"
fill="#000000" stroke="none">
<path d="M7171 8327 c4 -4 37 -42 75 -84 479 -528 717 -1192 674 -1880 -6 -95
-13 -179 -16 -186 -2 -7 -13 -60 -23 -117 -52 -290 -173 -594 -342 -855 -35
-54 -63 -104 -61 -110 2 -5 1 -7 -3 -3 -4 3 -43 -38 -87 -93 -43 -54 -84 -99
-89 -99 -5 0 -10 582 -11 1483 l-3 1484 -315 -113 c-173 -63 -357 -128 -407
-146 l-93 -32 0 -1631 0 -1631 -35 -17 c-20 -9 -40 -17 -45 -17 -7 0 -10 456
-10 1260 0 725 -4 1260 -9 1260 -5 0 -51 -15 -102 -34 -52 -19 -215 -78 -364
-131 -148 -53 -286 -103 -305 -110 l-35 -13 -3 -1196 -2 -1196 -24 0 c-23 0
-23 2 -29 118 -3 64 -13 428 -22 807 -10 380 -18 691 -19 692 -2 2 -122 -40
-251 -87 -27 -10 -166 -61 -307 -112 l-258 -92 0 -574 0 -574 -27 6 c-16 4
-91 38 -168 76 -457 225 -827 578 -1104 1055 -22 39 -41 67 -41 63 0 -4 19
-60 42 -125 242 -685 825 -1235 1553 -1466 243 -77 460 -110 740 -110 228 -1
351 11 550 54 302 65 612 198 881 378 155 104 331 250 326 270 -1 7 1 10 6 7
9 -5 150 132 192 186 12 15 18 33 14 39 -4 7 -3 9 3 6 28 -18 211 249 318 463
126 252 197 472 246 770 32 192 33 534 1 731 -31 190 -96 431 -157 574 -78
184 -235 451 -345 585 -84 102 -168 190 -182 190 -6 0 -9 3 -5 6 5 6 -16 34
-26 34 -2 0 -28 23 -58 51 -56 53 -259 211 -238 186z"/>
<path d="M7675 8025 c597 -677 821 -1549 611 -2376 -179 -703 -651 -1286
-1306 -1615 -129 -64 -154 -75 -308 -130 -276 -99 -593 -154 -891 -154 -82 0
-130 -4 -121 -9 26 -15 221 -59 340 -77 166 -24 435 -22 610 5 387 60 696 182
1015 399 510 347 875 891 1013 1507 59 263 75 605 38 850 -65 442 -220 815
-474 1145 -149 194 -393 414 -582 525 -8 5 17 -27 55 -70z"/>
</g>
</svg>
